<?xml version="1.0" standalone="no"?>
<!DOCTYPE svg PUBLIC "-//W3C//DTD SVG 20010904//EN"
 "http://www.w3.org/TR/2001/REC-SVG-20010904/DTD/svg10.dtd">
<svg version="1.0" xmlns="http://www.w3.org/2000/svg"
 width="260.000000pt" height="260.000000pt" viewBox="0 0 260.000000 260.000000"
 preserveAspectRatio="xMidYMid meet">
<metadata>
Created by potrace 1.14, written by Peter Selinger 2001-2017
</metadata>
<g transform="translate(0.000000,260.000000) scale(0.100000,-0.100000)"
fill="#000000" stroke="none">
<path d="M0 1300 l0 -1300 1300 0 1300 0 0 1135 0 1135 -143 0 c-105 0 -148 4
-162 14 -17 12 -18 27 -16 165 l2 151 -1140 0 -1141 0 0 -1300z m1618 801 c25
-5 55 -20 71 -35 15 -15 45 -32 67 -37 43 -12 83 -45 120 -99 14 -19 36 -50
49 -69 24 -32 25 -41 25 -177 0 -154 -7 -186 -45 -216 -14 -11 -32 -33 -40
-49 -9 -16 -31 -36 -52 -44 -44 -19 -53 -30 -53 -70 0 -40 23 -72 66 -90 19
-8 34 -19 34 -25 0 -7 20 -31 45 -56 l45 -43 0 -159 c0 -153 -1 -160 -25 -193
-13 -19 -35 -50 -49 -69 -35 -52 -93 -100 -121 -100 -13 0 -40 -14 -59 -31
-19 -16 -50 -34 -68 -40 -52 -14 -1111 -12 -1126 3 -17 17 -17 279 0 296 8 8
54 12 143 12 91 0 137 4 149 13 16 12 17 46 17 477 0 431 -1 465 -17 477 -12
9 -58 13 -149 13 -89 0 -135 4 -143 12 -17 17 -17 279 0 296 14 14 1044 17
1116 3z"/>
<path d="M1156 1774 c-23 -23 -23 -275 0 -298 13 -13 45 -16 189 -16 216 0
205 -9 205 167 0 170 9 163 -209 163 -141 0 -172 -3 -185 -16z"/>
<path d="M1156 1124 c-23 -23 -23 -275 0 -298 13 -13 45 -16 189 -16 216 0
205 -9 205 167 0 170 9 163 -209 163 -141 0 -172 -3 -185 -16z"/>
</g>
</svg>
